<svg width="67" height="68" viewBox="0 0 67 68" fill="none" xmlns="http://www.w3.org/2000/svg">
<path d="M33.2535 67.9999C51.6189 67.9999 66.507 53.1118 66.507 34.7464C66.507 16.381 51.6189 1.49292 33.2535 1.49292C14.8881 1.49292 0 16.381 0 34.7464C0 53.1118 14.8881 67.9999 33.2535 67.9999Z" fill="#08D3CF"/>
<path d="M44.5899 14.9301H21.9233V3.25748C21.9233 1.4584 23.3817 0 25.1808 0H41.3325C43.1315 0 44.5899 1.4584 44.5899 3.25748V14.9301Z" fill="#1F3A60"/>
<path d="M44.5333 2.65485V5.83633H30.689C29.2648 5.83633 28.1102 4.68168 28.1102 3.25748C28.1102 1.4584 29.5686 0 31.3677 0H25.1808C23.3817 0 21.9233 1.4584 21.9233 3.25748V5.83633V14.9301H28.1102H44.5899V3.25748C44.5899 3.05145 44.57 2.8503 44.5333 2.65485Z" fill="#132B47"/>
<path d="M48.4434 7.73657H18.0698C16.3001 7.73657 14.8654 9.17122 14.8654 10.941V62.4554C20.1325 65.9577 26.4541 68 33.2535 68C40.0556 68 46.3796 65.9561 51.6479 62.4512V10.941C51.6479 9.17122 50.2132 7.73657 48.4434 7.73657Z" fill="#7956BA"/>
<path d="M48.4434 7.73657H18.0698C16.3001 7.73657 14.8654 9.17122 14.8654 10.941V62.4554C20.1325 65.9577 26.4541 68 33.2535 68C40.0556 68 46.3796 65.9561 51.6479 62.4512V10.941C51.6479 9.17122 50.2132 7.73657 48.4434 7.73657Z" fill="#35528C"/>
<path d="M26.0212 7.73657H18.0698C16.3001 7.73657 14.8654 9.17122 14.8654 10.941V62.4554C17.3081 64.0797 19.978 65.3893 22.8168 66.3275V10.941C22.8168 9.17122 24.2514 7.73657 26.0212 7.73657Z" fill="#1F3A60"/>
<path d="M44.445 62.32H22.0909C20.5493 62.32 19.2878 61.0586 19.2878 59.517C19.2878 57.9754 20.5492 56.7141 22.0909 56.7141H44.445C45.9866 56.7141 47.2479 57.9754 47.2479 59.517C47.2479 61.0585 45.9866 62.32 44.445 62.32Z" fill="#FEC753"/>
<path d="M44.445 53.9389H22.0909C20.5493 53.9389 19.2878 52.6775 19.2878 51.1359C19.2878 49.5943 20.5492 48.333 22.0909 48.333H44.445C45.9866 48.333 47.2479 49.5943 47.2479 51.1359C47.2479 52.6774 45.9866 53.9389 44.445 53.9389Z" fill="#FEC753"/>
<path d="M44.445 45.5575H22.0909C20.5493 45.5575 19.2878 44.2962 19.2878 42.7546C19.2878 41.213 20.5492 39.9517 22.0909 39.9517H44.445C45.9866 39.9517 47.2479 41.213 47.2479 42.7546C47.2479 44.2961 45.9866 45.5575 44.445 45.5575Z" fill="#FEC753"/>
<path d="M44.445 37.1763H22.0909C20.5493 37.1763 19.2878 35.915 19.2878 34.3733C19.2878 32.8317 20.5492 31.5702 22.0909 31.5702H44.445C45.9866 31.5702 47.2479 32.8315 47.2479 34.3733C47.2479 35.9149 45.9866 37.1763 44.445 37.1763Z" fill="#FEC753"/>
<path d="M44.445 28.7951H22.0909C20.5493 28.7951 19.2878 27.5338 19.2878 25.992C19.2878 24.4504 20.5492 23.189 22.0909 23.189H44.445C45.9866 23.189 47.2479 24.4503 47.2479 25.992C47.2479 27.5336 45.9866 28.7951 44.445 28.7951Z" fill="#FEC753"/>
<path d="M19.2878 59.5171C19.2878 61.0587 20.5492 62.32 22.0908 62.32H22.8168V56.714H22.0908C20.5492 56.7141 19.2878 57.9755 19.2878 59.5171Z" fill="#E0A336"/>
<path d="M19.2878 51.1357C19.2878 52.6773 20.5492 53.9386 22.0908 53.9386H22.8168V48.3326H22.0908C20.5492 48.3328 19.2878 49.5941 19.2878 51.1357Z" fill="#E0A336"/>
<path d="M19.2878 42.7545C19.2878 44.2961 20.5492 45.5574 22.0908 45.5574H22.8168V39.9514H22.0908C20.5492 39.9516 19.2878 41.2129 19.2878 42.7545Z" fill="#E0A336"/>
<path d="M19.2878 34.3733C19.2878 35.9149 20.5492 37.1762 22.0908 37.1762H22.8168V31.5702H22.0908C20.5492 31.5703 19.2878 32.8317 19.2878 34.3733Z" fill="#E0A336"/>
<path d="M19.2878 25.992C19.2878 27.5336 20.5492 28.795 22.0908 28.795H22.8168V23.189H22.0908C20.5492 23.1891 19.2878 24.4504 19.2878 25.992Z" fill="#E0A336"/>
<path d="M44.445 20.6514H22.0909C20.5493 20.6514 19.2878 19.3901 19.2878 17.8483C19.2878 16.3067 20.5492 15.0454 22.0909 15.0454H44.445C45.9866 15.0454 47.2479 16.3067 47.2479 17.8483C47.2479 19.3899 45.9866 20.6514 44.445 20.6514Z" fill="#FEC753"/>
<path d="M19.2878 17.8484C19.2878 19.39 20.5492 20.6513 22.0908 20.6513H22.8168V15.0453H22.0908C20.5492 15.0454 19.2878 16.3067 19.2878 17.8484Z" fill="#E0A336"/>
</svg>
