<svg width="68" height="68" viewBox="0 0 68 68" fill="none" xmlns="http://www.w3.org/2000/svg">
<path d="M34 68C52.7777 68 68 52.7777 68 34C68 15.2223 52.7777 0 34 0C15.2223 0 0 15.2223 0 34C0 52.7777 15.2223 68 34 68Z" fill="#FE5D6D"/>
<path d="M34 61.3387C49.0988 61.3387 61.3388 49.0987 61.3388 33.9999C61.3388 18.9011 49.0988 6.66113 34 6.66113C18.9012 6.66113 6.66122 18.9011 6.66122 33.9999C6.66122 49.0987 18.9012 61.3387 34 61.3387Z" fill="#35528C"/>
<path d="M11.3796 34C11.3796 21.5072 21.5072 11.3796 34 11.3796C41.2104 11.3796 47.6325 14.7534 51.7747 20.0082C52.7326 20.3727 53.443 20.862 53.8371 21.4854H58.3118C54.3567 13.8178 46.8809 8.26368 38.0219 6.95739C38.0228 6.95725 38.0237 6.95711 38.0246 6.95697C37.8122 6.92561 37.5986 6.89757 37.3845 6.87107C37.3004 6.86066 37.2161 6.85039 37.1318 6.84067C36.8947 6.81361 36.6567 6.78947 36.4179 6.76851C36.35 6.76254 36.282 6.75699 36.214 6.75158C35.957 6.7309 35.699 6.71328 35.4401 6.69968C35.4226 6.69871 35.4054 6.69704 35.3879 6.69621V6.69732C34.9281 6.67414 34.4656 6.66138 34.0002 6.66138C18.9014 6.66138 6.66138 18.9014 6.66138 34.0002C6.66138 49.0989 18.9014 61.3389 34.0002 61.3389C35.3675 61.3389 36.7111 61.2372 38.0246 61.0433C32.4116 60.2151 27.3546 57.6804 23.396 53.9844C16.2476 50.1833 11.3796 42.6607 11.3796 34Z" fill="#1F3A60"/>
<path d="M34 57.4531C46.9528 57.4531 57.4531 46.9528 57.4531 34.0001C57.4531 21.0473 46.9528 10.547 34 10.547C21.0472 10.547 10.547 21.0473 10.547 34.0001C10.547 46.9528 21.0472 57.4531 34 57.4531Z" fill="#FEC753"/>
<path d="M17.347 34.0001C17.347 22.2022 26.0587 12.4404 37.4 10.7932C36.2898 10.6319 35.1549 10.547 34 10.547C21.0473 10.547 10.547 21.0473 10.547 34.0001C10.547 46.9528 21.0473 57.4531 34 57.4531C35.1549 57.4531 36.2898 57.3682 37.4 57.2069C26.0587 55.5597 17.347 45.7979 17.347 34.0001Z" fill="#E0A336"/>
<path d="M47.5306 32.4735H37.1283C36.7486 31.663 36.0777 31.0173 35.249 30.6714V18.9429C35.249 18.2147 34.6588 17.6245 33.9306 17.6245C33.2024 17.6245 32.6122 18.2147 32.6122 18.9429V30.6142C31.2352 31.1224 30.2531 32.4464 30.2531 34C30.2531 35.9927 31.8685 37.6082 33.8612 37.6082C33.9556 37.6082 34.0488 37.6035 34.1414 37.5963C34.156 37.5951 34.1707 37.5942 34.1851 37.5929C34.277 37.5847 34.3677 37.5731 34.4575 37.5582C34.4656 37.5568 34.4736 37.5553 34.4818 37.5539C34.6737 37.5206 34.8605 37.4723 35.0408 37.4099H35.0409C36.014 37.0732 36.7984 36.3323 37.1927 35.3878H47.5307C48.3355 35.3878 48.9879 34.7354 48.9879 33.9306C48.9879 33.1259 48.3354 32.4735 47.5306 32.4735Z" fill="#35528C"/>
<path d="M33.8612 37.6083C35.8539 37.6083 37.4694 35.9929 37.4694 34.0001C37.4694 32.0074 35.8539 30.392 33.8612 30.392C31.8685 30.392 30.2531 32.0074 30.2531 34.0001C30.2531 35.9929 31.8685 37.6083 33.8612 37.6083Z" fill="#1F3A60"/>
<path d="M32.6122 34.0001C32.6122 32.4206 33.6275 31.0792 35.0408 30.5903C34.6711 30.4623 34.2745 30.392 33.8612 30.392C31.8685 30.392 30.2531 32.0075 30.2531 34.0001C30.2531 35.9928 31.8685 37.6083 33.8612 37.6083C34.2745 37.6083 34.6711 37.5379 35.0408 37.41C33.6275 36.9212 32.6122 35.5797 32.6122 34.0001Z" fill="#132B47"/>
<path d="M14.0163 34.6939H12.4898C12.1082 34.6939 11.7959 34.3817 11.7959 34C11.7959 33.6184 12.1082 33.3062 12.4898 33.3062H14.0163C14.398 33.3062 14.7102 33.6184 14.7102 34C14.7102 34.3817 14.398 34.6939 14.0163 34.6939Z" fill="white"/>
<path d="M55.3714 34.6939H53.8449C53.4632 34.6939 53.151 34.3817 53.151 34C53.151 33.6184 53.4632 33.3062 53.8449 33.3062H55.3714C55.753 33.3062 56.0653 33.6184 56.0653 34C56.0653 34.3817 55.753 34.6939 55.3714 34.6939Z" fill="white"/>
<path d="M33.2367 14.0858V12.5592C33.2367 12.1776 33.549 11.8654 33.9306 11.8654C34.3122 11.8654 34.6245 12.1776 34.6245 12.5592V14.0858C34.6245 14.4674 34.3122 14.7796 33.9306 14.7796C33.549 14.7796 33.2367 14.4674 33.2367 14.0858Z" fill="white"/>
<path d="M33.2367 55.4407V53.9142C33.2367 53.5326 33.549 53.2203 33.9306 53.2203C34.3122 53.2203 34.6245 53.5326 34.6245 53.9142V55.4407C34.6245 55.8224 34.3122 56.1346 33.9306 56.1346C33.549 56.1346 33.2367 55.8224 33.2367 55.4407Z" fill="white"/>
<path d="M19.3583 20.4091L18.2789 19.3297C18.009 19.0598 18.009 18.6182 18.2789 18.3484C18.5489 18.0785 18.9904 18.0785 19.2602 18.3484L20.3396 19.4278C20.6095 19.6977 20.6095 20.1393 20.3396 20.4091C20.0698 20.6789 19.6283 20.6789 19.3583 20.4091Z" fill="white"/>
<path d="M48.6008 49.6517L47.5214 48.5723C47.2515 48.3024 47.2515 47.8609 47.5214 47.591C47.7914 47.3211 48.2329 47.3211 48.5027 47.591L49.5821 48.6704C49.852 48.9403 49.852 49.3819 49.5821 49.6517C49.3123 49.9215 48.8708 49.9215 48.6008 49.6517Z" fill="white"/>
<path d="M20.3396 48.5723L19.2602 49.6517C18.9903 49.9216 18.5487 49.9216 18.2789 49.6517C18.009 49.3818 18.009 48.9402 18.2789 48.6704L19.3583 47.591C19.6283 47.3211 20.0698 47.3211 20.3396 47.591C20.6095 47.8608 20.6095 48.3024 20.3396 48.5723Z" fill="white"/>
</svg>
