<svg width="68" height="67" viewBox="0 0 68 67" fill="none" xmlns="http://www.w3.org/2000/svg">
<path d="M33.1858 66.3716C51.5138 66.3716 66.3716 51.5138 66.3716 33.1858C66.3716 14.8578 51.5138 0 33.1858 0C14.8578 0 0 14.8578 0 33.1858C0 51.5138 14.8578 66.3716 33.1858 66.3716Z" fill="#94E6FE"/>
<path d="M20.8862 60.7639V57.1548C22.5996 56.7914 24.1979 56.1169 25.6193 55.1932L28.1722 57.746C29.18 58.7538 30.8138 58.7538 31.8215 57.746L32.3311 57.2365C33.3389 56.2287 33.3389 54.5949 32.3311 53.5871L29.7782 51.0342C30.702 49.6127 31.3764 48.0145 31.7399 46.3011H35.349C36.7741 46.3011 37.9295 45.1459 37.9295 43.7206V43C37.9295 41.5749 36.7742 40.4195 35.349 40.4195H31.7399C31.3763 38.7062 30.7019 37.108 29.7782 35.6864L32.3311 33.1335C33.3389 32.1258 33.3389 30.492 32.3311 29.4842L31.8215 28.9746C30.8138 27.9669 29.18 27.9669 28.1722 28.9746L25.6193 31.5275C24.1978 30.6037 22.5996 29.9293 20.8862 29.5659V25.9565C20.8862 24.5314 19.7309 23.376 18.3057 23.376H17.585C16.1599 23.376 15.0045 24.5312 15.0045 25.9565V29.5656C13.2911 29.9292 11.6928 30.6034 10.2714 31.5272L7.7185 28.9744C6.71073 27.9666 5.07691 27.9666 4.06914 28.9744L3.55957 29.4839C2.55181 30.4917 2.55181 32.1255 3.55957 33.1333L6.11244 35.6861C5.18866 37.1077 4.51424 38.7059 4.15082 40.4193H0.791199C1.24429 42.4566 1.88633 44.423 2.69525 46.3009H4.15096C4.51437 48.0142 5.18879 49.6124 6.11258 51.034L5.56318 51.5834C6.6617 53.2295 7.90515 54.7707 9.27254 56.1919L10.2715 55.1929C11.6931 56.1167 13.2913 56.7911 15.0046 57.1545V60.7636C15.0046 60.8291 15.0096 60.8931 15.0144 60.9573C16.3074 61.8051 17.6637 62.5641 19.0741 63.2278C20.124 62.9009 20.8862 61.9215 20.8862 60.7639ZM11.3286 43.3602C11.3286 39.7058 14.291 36.7434 17.9454 36.7434C21.5998 36.7434 24.5623 39.7058 24.5623 43.3602C24.5623 47.0146 21.5998 49.977 17.9454 49.977C14.291 49.977 11.3286 47.0146 11.3286 43.3602Z" fill="#1F3A60"/>
<path d="M33.5802 46.301C33.7585 45.3479 33.8526 44.3652 33.8526 43.3602C33.8526 42.3553 33.7583 41.3726 33.5802 40.4194H31.7401C31.6492 39.9911 31.539 39.57 31.4101 39.157C31.2813 38.744 31.1341 38.3392 30.9694 37.9435C30.8047 37.5477 30.6223 37.1611 30.4235 36.7847C30.2247 36.4081 30.0093 36.0417 29.7783 35.6863L31.0795 34.3852C29.9631 32.7546 28.5511 31.3426 26.9206 30.2262L25.6194 31.5274C25.0864 31.181 24.5284 30.8696 23.9489 30.5966C22.983 30.1414 21.9571 29.7929 20.8863 29.5656V27.7255C19.9331 27.5473 18.9504 27.4531 17.9455 27.4531C16.9406 27.4531 15.9579 27.5474 15.0047 27.7255V29.5656C14.7906 29.611 14.5782 29.6614 14.3677 29.7164C13.5258 29.9365 12.7147 30.2325 11.942 30.5966C11.3625 30.8696 10.8046 31.1809 10.2715 31.5274L8.97031 30.2262C7.33973 31.3426 5.92778 32.7546 4.81138 34.3852L6.11254 35.6863C5.88159 36.0417 5.66622 36.4081 5.46738 36.7847C5.26853 37.1613 5.08635 37.5478 4.92151 37.9435C4.7568 38.3392 4.60956 38.744 4.48074 39.157C4.35193 39.57 4.24167 39.9911 4.15078 40.4194H2.31066C2.13241 41.3726 2.03827 42.3553 2.03827 43.3602C2.03827 43.8592 2.06157 44.3527 2.10681 44.8399C2.29184 45.3326 2.48784 45.8198 2.69521 46.3012H4.15092C4.19629 46.5153 4.24668 46.7277 4.30168 46.9382C4.35667 47.1487 4.41654 47.3572 4.48088 47.5637C4.60969 47.9767 4.75693 48.3816 4.92164 48.7772C5.08635 49.1729 5.26867 49.5596 5.46751 49.936C5.66636 50.3125 5.88173 50.679 6.11267 51.0344L5.56328 51.5838C6.6618 53.23 7.90525 54.7711 9.27264 56.1923L10.2716 55.1933C10.9823 55.6552 11.7373 56.0548 12.5288 56.3842C12.9244 56.549 13.3293 56.6962 13.7423 56.825C14.1553 56.9538 14.5764 57.0641 15.0047 57.155V58.9951C15.9579 59.1732 16.9406 59.2675 17.9455 59.2675C18.9504 59.2675 19.9331 59.1732 20.8863 58.9951V57.155C21.3146 57.0641 21.7357 56.9538 22.1487 56.825C22.5037 56.7143 22.8516 56.5873 23.194 56.4498C23.4489 56.3475 23.7016 56.2407 23.9489 56.124C24.5284 55.851 25.0863 55.5397 25.6194 55.1932L26.9206 56.4944C28.5511 55.378 29.9631 53.966 31.0795 52.3354L29.7783 51.0343C30.0093 50.6789 30.2247 50.3125 30.4235 49.9359C30.6223 49.5593 30.8045 49.1728 30.9694 48.7771C31.1341 48.3813 31.2813 47.9766 31.4101 47.5636C31.539 47.1506 31.6492 46.7295 31.7401 46.3012H33.5802V46.301ZM17.9454 50.8238C13.8233 50.8238 10.4818 47.4823 10.4818 43.3602C10.4818 39.2383 13.8233 35.8967 17.9454 35.8967C22.0675 35.8967 25.4089 39.2383 25.4089 43.3602C25.4089 47.4823 22.0675 50.8238 17.9454 50.8238Z" fill="#0C1F35"/>
<path d="M17.9454 29.2578C10.1567 29.2578 3.84277 35.5718 3.84277 43.3604C3.84277 51.1491 10.1567 57.463 17.9454 57.463C25.734 57.463 32.048 51.1489 32.048 43.3603C32.048 35.5716 25.734 29.2578 17.9454 29.2578ZM17.9454 49.9771C14.291 49.9771 11.3285 47.0147 11.3285 43.3603C11.3285 39.7059 14.291 36.7434 17.9454 36.7434C21.5997 36.7434 24.5622 39.7059 24.5622 43.3603C24.5622 47.0147 21.5997 49.9771 17.9454 49.9771Z" fill="#35528C"/>
<path d="M9.72452 43.3604C9.72452 36.5804 14.5094 30.9187 20.8862 29.5658C19.9376 29.3645 18.954 29.2578 17.9454 29.2578C10.1567 29.2578 3.84277 35.5718 3.84277 43.3604C3.84277 51.1491 10.1567 57.463 17.9454 57.463C18.954 57.463 19.9376 57.3563 20.8862 57.155C14.5094 55.8021 9.72452 50.1405 9.72452 43.3604Z" fill="#1F3A60"/>
<path d="M65.4595 19.9976H61.906C61.5481 18.3107 60.8842 16.7372 59.9746 15.3377L62.488 12.8242C63.4802 11.832 63.4802 10.2234 62.488 9.2312L61.9863 8.72949C60.9941 7.7373 59.3855 7.7373 58.3933 8.72949L55.8799 11.2429C54.4802 10.3334 52.9067 9.66939 51.2198 9.31152V5.75821C51.2198 4.35506 50.0822 3.21753 48.6792 3.21753H47.9696C46.5664 3.21753 45.4291 4.35506 45.4291 5.75821V9.31166C43.7421 9.66952 42.1686 10.3335 40.7691 11.2431L38.2556 8.72962C37.2634 7.73743 35.6548 7.73743 34.6626 8.72962L34.1609 9.23134C33.1687 10.2235 33.1687 11.8322 34.1609 12.8243L36.6744 15.3378C35.7648 16.7374 35.1008 18.311 34.743 19.9978H31.1895C29.7863 19.9978 28.649 21.1353 28.649 22.5384V23.2479C28.649 24.6511 29.7865 25.7886 31.1895 25.7886H34.743C35.1008 27.4755 35.7648 29.0491 36.6744 30.4487L34.1609 32.9622C33.1687 33.9543 33.1687 35.563 34.1609 36.5552L34.6626 37.0569C35.6548 38.0491 37.2634 38.0491 38.2556 37.0569L40.7691 34.5434C42.1687 35.453 43.7423 36.117 45.4291 36.4748V40.0282C45.4291 41.4313 46.5666 42.5688 47.9696 42.5688H48.6792C50.0824 42.5688 51.2198 41.4313 51.2198 40.0282V36.4748C52.9067 36.117 54.4802 35.453 55.8799 34.5434L58.3933 37.0569C59.3855 38.0491 60.9941 38.0491 61.9863 37.0569L62.488 36.5552C63.4802 35.563 63.4802 33.9543 62.488 32.9622L59.9746 30.4487C60.8842 29.0491 61.5481 27.4755 61.906 25.7886H65.4595C66.8626 25.7886 68 24.6511 68 23.2479V22.5384C68 21.1351 66.8626 19.9976 65.4595 19.9976ZM54.8392 22.893C54.8392 26.4909 51.9225 29.4076 48.3246 29.4076C44.7267 29.4076 41.81 26.4909 41.81 22.893C41.81 19.2952 44.7267 16.3785 48.3246 16.3785C51.9225 16.3785 54.8392 19.2952 54.8392 22.893Z" fill="#1F3A60"/>
<path d="M63.7178 19.9977H61.9061C61.5483 18.3107 60.8843 16.7372 59.9747 15.3377L61.2558 14.0566C60.1566 12.4512 58.7665 11.0611 57.1611 9.96186L55.88 11.243C54.4804 10.3334 52.9068 9.66942 51.2199 9.31156V7.49988C50.2815 7.32447 49.3138 7.23169 48.3245 7.23169C47.3351 7.23169 46.3676 7.32447 45.4291 7.49988V9.31156C43.7421 9.66942 42.1686 10.3334 40.7691 11.243L39.488 9.96186C37.8826 11.0611 36.4925 12.4512 35.3933 14.0566L36.6744 15.3377C35.7648 16.7373 35.1008 18.3109 34.743 19.9977H32.9313C32.7559 20.9361 32.6631 21.9037 32.6631 22.8931C32.6631 23.8824 32.7559 24.85 32.9313 25.7885H34.743C35.1008 27.4754 35.7648 29.049 36.6744 30.4486L35.3933 31.7297C36.4925 33.3351 37.8826 34.7252 39.488 35.8244L40.7691 34.5433C42.1687 35.4529 43.7423 36.1169 45.4291 36.4747V38.2864C46.3676 38.4618 47.3351 38.5546 48.3245 38.5546C49.3138 38.5546 50.2814 38.4618 51.2199 38.2864V36.4747C52.9068 36.1169 54.4804 35.4529 55.88 34.5433L57.1611 35.8244C58.7665 34.7252 60.1566 33.3351 61.2558 31.7297L59.9747 30.4486C60.8843 29.049 61.5483 27.4754 61.9061 25.7885H63.7178C63.8932 24.8501 63.986 23.8824 63.986 22.8931C63.986 21.9037 63.8932 20.9362 63.7178 19.9977ZM48.3245 30.2414C44.2662 30.2414 40.9762 26.9515 40.9762 22.8931C40.9762 18.8347 44.2661 15.5448 48.3245 15.5448C52.3829 15.5448 55.6728 18.8347 55.6728 22.8931C55.6728 26.9515 52.3829 30.2414 48.3245 30.2414Z" fill="#0C1F35"/>
<path d="M48.3245 9.0083C40.6561 9.0083 34.4398 15.2247 34.4398 22.893C34.4398 30.5612 40.6563 36.7776 48.3245 36.7776C55.9927 36.7776 62.2092 30.5612 62.2092 22.893C62.2092 15.2247 55.9929 9.0083 48.3245 9.0083ZM48.3245 29.4075C44.7266 29.4075 41.8099 26.4909 41.8099 22.893C41.8099 19.2951 44.7266 16.3784 48.3245 16.3784C51.9224 16.3784 54.8391 19.2951 54.8391 22.893C54.8391 26.4909 51.9225 29.4075 48.3245 29.4075Z" fill="#35528C"/>
<path d="M40.2305 22.8931C40.2305 16.2179 44.9414 10.6436 51.2199 9.31158C50.286 9.11341 49.3176 9.0083 48.3245 9.0083C40.6561 9.0083 34.4398 15.2247 34.4398 22.893C34.4398 30.5612 40.6563 36.7776 48.3245 36.7776C49.3175 36.7776 50.2858 36.6725 51.2199 36.4743C44.9414 35.1426 40.2305 29.5683 40.2305 22.8931Z" fill="#1F3A60"/>
<path d="M54.3062 47.165L57.2125 44.2587C57.3287 44.2801 57.4479 44.2929 57.5702 44.2929C58.6549 44.2929 59.5343 43.4135 59.5343 42.3288C59.5343 41.2441 58.6549 40.3647 57.5702 40.3647C56.4855 40.3647 55.6061 41.2441 55.6061 42.3288C55.6061 42.5294 55.6366 42.723 55.6924 42.9053L52.8693 45.7284C52.232 46.3657 51.8811 47.2131 51.8811 48.1142V60.6051C52.5778 60.1291 53.2555 59.6275 53.9129 59.1012V48.1141C53.913 47.7557 54.0526 47.4186 54.3062 47.165Z" fill="#08D3CF"/>
<path d="M47.5744 52.9073L44.7513 50.0842C44.8072 49.9019 44.8376 49.7085 44.8376 49.5078C44.8376 48.4231 43.9582 47.5437 42.8735 47.5437C41.7888 47.5437 40.9094 48.4231 40.9094 49.5078C40.9094 50.5925 41.7888 51.4718 42.8735 51.4718C42.9958 51.4718 43.1151 51.4591 43.2312 51.4377L46.1375 54.344C46.3911 54.5975 46.5307 54.9345 46.5307 55.2932V63.5777C47.2207 63.2743 47.898 62.9472 48.5625 62.5991V55.2932C48.5626 54.392 48.2117 53.5446 47.5744 52.9073Z" fill="#08D3CF"/>
<path d="M15.2545 14.9545L12.3482 17.8608C12.232 17.8394 12.1128 17.8267 11.9905 17.8267C10.9058 17.8267 10.0265 18.706 10.0265 19.7907C10.0265 20.8754 10.9058 21.7548 11.9905 21.7548C13.0752 21.7548 13.9546 20.8754 13.9546 19.7907C13.9546 19.5901 13.9241 19.3966 13.8683 19.2142L16.6914 16.3911C17.3287 15.7538 17.6796 14.9065 17.6796 14.0053V3.8396C16.9875 4.20613 16.3099 4.59678 15.6479 5.00977V14.0053C15.6477 14.364 15.5081 14.701 15.2545 14.9545Z" fill="#08D3CF"/>
<path d="M21.9864 9.21239L24.8095 12.0355C24.7535 12.2178 24.7232 12.4112 24.7232 12.612C24.7232 13.6967 25.6025 14.576 26.6872 14.576C27.7719 14.576 28.6513 13.6967 28.6513 12.612C28.6513 11.5273 27.7719 10.6479 26.6872 10.6479C26.5649 10.6479 26.4456 10.6606 26.3295 10.682L23.4232 7.77578C23.1697 7.52221 23.03 7.18521 23.03 6.82653V1.58521C22.3427 1.80599 21.6652 2.04818 20.9982 2.31177V6.82639C20.9981 7.72769 21.3491 8.57508 21.9864 9.21239Z" fill="#08D3CF"/>
</svg>
