<svg width="258" height="34" viewBox="0 0 258 34" fill="none" xmlns="http://www.w3.org/2000/svg">
<path fill-rule="evenodd" clip-rule="evenodd" d="M23.8319 2.90112C15.2362 2.90112 8.3256 9.55742 8.3256 17.6988C8.3256 25.8402 15.2362 32.4965 23.8319 32.4965C32.4277 32.4965 39.3383 25.8402 39.3383 17.6988C39.3383 9.55742 32.4277 2.90112 23.8319 2.90112ZM6.8256 17.6988C6.8256 8.66669 14.4714 1.40112 23.8319 1.40112C33.1924 1.40112 40.8383 8.66669 40.8383 17.6988C40.8383 26.7309 33.1924 33.9965 23.8319 33.9965C14.4714 33.9965 6.8256 26.7309 6.8256 17.6988Z" fill="#302E4A"/>
<path d="M59.2044 7.39835H45.9851V11.5152H59.2044V7.39835Z" fill="#302E4A"/>
<path d="M55.4588 7.39835H49.7813V26.1518H55.4588V7.39835Z" fill="#302E4A"/>
<path d="M67.1512 7.4996H61.3641V26.2193H67.1512V7.4996Z" fill="#302E4A"/>
<path d="M75.5029 7.39835H61.3641V11.5152H75.5029V7.39835Z" fill="#302E4A"/>
<path d="M73.9507 14.4931H61.3641V18.5002H73.9507V14.4931Z" fill="#302E4A"/>
<path d="M75.4354 21.8325H61.3641V26.2024H75.4354V21.8325Z" fill="#302E4A"/>
<path d="M95.3614 26.1602C93.1174 26.1687 90.8734 26.1686 88.6379 26.1771C84.6054 19.9344 80.573 13.6833 76.5321 7.44055C78.7677 7.44899 80.9948 7.46587 83.2304 7.4743C87.2713 13.7001 91.3206 19.9344 95.3614 26.1602Z" fill="#302E4A"/>
<path d="M81.7034 26.1096C79.9656 26.1012 78.2193 26.0927 76.4815 26.0843C80.8177 19.85 85.1538 13.6158 89.4815 7.3815C91.1856 7.38994 92.8897 7.39837 94.5938 7.40681C90.2998 13.6411 85.9974 19.8753 81.7034 26.1096Z" fill="#302E4A"/>
<path d="M102.819 7.39835H97.133V26.1011H102.819V7.39835Z" fill="#302E4A"/>
<path d="M113.195 7.53333H107.374V26.1011H113.195V7.53333Z" fill="#302E4A"/>
<path d="M113.195 14.1135H97.133V19.057H113.195V14.1135Z" fill="#302E4A"/>
<path fill-rule="evenodd" clip-rule="evenodd" d="M126.246 7.60846C121.083 7.60846 116.898 11.7937 116.898 16.9564C116.898 22.1192 121.083 26.3044 126.246 26.3044C131.409 26.3044 135.594 22.1192 135.594 16.9564C135.594 11.7937 131.409 7.60846 126.246 7.60846ZM115.398 16.9564C115.398 10.9653 120.255 6.10846 126.246 6.10846C132.237 6.10846 137.094 10.9653 137.094 16.9564C137.094 22.9476 132.237 27.8044 126.246 27.8044C120.255 27.8044 115.398 22.9476 115.398 16.9564Z" fill="#302E4A"/>
<path d="M143.987 7.44897H138.495V26.1011H143.987V7.44897Z" fill="#302E4A"/>
<path d="M142.114 25.6119L138.554 23.1232L149.555 7.4068C151.25 7.4068 152.955 7.41524 154.65 7.41524C150.466 13.4808 146.29 19.5463 142.114 25.6119Z" fill="#302E4A"/>
<path d="M149.015 12.6456L143.979 15.1764C145.784 18.7618 147.589 22.3387 149.386 25.924C151.504 25.9662 153.621 25.9999 155.73 26.0421C153.494 21.5794 151.25 17.1083 149.015 12.6456Z" fill="#302E4A"/>
<path fill-rule="evenodd" clip-rule="evenodd" d="M165.651 7.60846C160.488 7.60846 156.303 11.7937 156.303 16.9564C156.303 22.1192 160.488 26.3044 165.651 26.3044C170.814 26.3044 174.999 22.1192 174.999 16.9564C174.999 11.7937 170.814 7.60846 165.651 7.60846ZM154.803 16.9564C154.803 10.9653 159.66 6.10846 165.651 6.10846C171.642 6.10846 176.499 10.9653 176.499 16.9564C176.499 22.9476 171.642 27.8044 165.651 27.8044C159.66 27.8044 154.803 22.9476 154.803 16.9564Z" fill="#302E4A"/>
<path d="M182.835 7.4321H178.55V26.0421H182.835V7.4321Z" fill="#302E4A"/>
<path d="M199.243 7.5249H194.013V26.1011H199.243V7.5249Z" fill="#302E4A"/>
<path d="M190.369 26.1518C189.061 26.1265 187.762 26.1096 186.454 26.0843C188.158 19.8585 189.862 13.6411 191.575 7.41525C192.857 7.449 194.14 7.48275 195.422 7.52493C193.735 13.7339 192.047 19.9428 190.369 26.1518Z" fill="#302E4A"/>
<path d="M186.437 26.1518C187.745 26.1265 189.044 26.1096 190.352 26.0843C188.648 19.8585 186.952 13.6242 185.248 7.39835C183.881 7.40678 182.506 7.42366 181.14 7.4321C182.903 13.6664 184.674 19.9091 186.437 26.1518Z" fill="#302E4A"/>
<path d="M190.816 22.4146L186.96 23.6294C185.29 18.2303 183.62 12.8228 181.941 7.42367C183.308 7.38992 184.674 7.34774 186.049 7.314L190.816 22.4146Z" fill="#302E4A"/>
<path d="M218.672 7.50803H202.964V11.5658H218.672V7.50803Z" fill="#302E4A"/>
<path d="M208.624 7.49115H202.964V26.1771H208.624V7.49115Z" fill="#302E4A"/>
<path d="M218.663 7.49115H213.003V26.1771H218.663V7.49115Z" fill="#302E4A"/>
<path d="M238.876 26.1855C236.927 26.1855 234.987 26.1855 233.038 26.1855C230.971 19.9512 228.913 13.717 226.846 7.49115C228.854 7.49959 230.862 7.50803 232.87 7.5249C234.869 13.7423 236.868 19.9597 238.876 26.1855Z" fill="#302E4A"/>
<path d="M225.311 26.2108C223.632 26.2192 221.945 26.2361 220.266 26.2446C222.291 19.9934 224.315 13.7423 226.34 7.49115C227.993 7.49959 229.647 7.50802 231.3 7.51646C229.301 13.7423 227.31 19.9766 225.311 26.2108Z" fill="#302E4A"/>
<path d="M234.439 18.5255H224.67V22.752H234.439V18.5255Z" fill="#302E4A"/>
<path fill-rule="evenodd" clip-rule="evenodd" d="M257.87 14.3581C256.738 10.2214 252.927 7.17902 248.4 7.17902C242.982 7.17902 238.589 11.5376 238.589 16.9143C238.589 22.2909 242.982 26.6495 248.4 26.6495C252.915 26.6495 256.718 23.6236 257.861 19.5041H253.539C252.65 21.2032 250.86 22.3639 248.797 22.3639C245.848 22.3639 243.457 19.992 243.457 17.0661C243.457 14.1402 245.848 11.7682 248.797 11.7682C250.749 11.7682 252.456 12.8072 253.388 14.3581H257.87Z" fill="#302E4A"/>
<path d="M25.5444 0.286743H23.0389V10.7812H25.5444V0.286743Z" fill="#302E4A"/>
<path fill-rule="evenodd" clip-rule="evenodd" d="M5.05322 15.7124C4.29972 15.7124 3.53927 16.4096 3.53927 17.4626C3.53927 18.5156 4.29971 19.2127 5.05322 19.2127C5.80672 19.2127 6.56716 18.5156 6.56716 17.4626C6.56716 16.4096 5.80671 15.7124 5.05322 15.7124ZM1.53927 17.4626C1.53927 15.4779 3.02988 13.7124 5.05322 13.7124C7.07655 13.7124 8.56716 15.4779 8.56716 17.4626C8.56716 19.4473 7.07654 21.2127 5.05322 21.2127C3.02989 21.2127 1.53927 19.4473 1.53927 17.4626Z" fill="#302E4A"/>
<path d="M3.8806 16.8299H0V17.9519H3.8806V16.8299Z" fill="#302E4A"/>
<path fill-rule="evenodd" clip-rule="evenodd" d="M8.93561 9.56871C9.4422 9.78868 9.67455 10.3777 9.45459 10.8843C8.93248 12.0867 8.16509 14.2887 8.06894 17.1737C7.97333 20.3622 8.74886 22.8217 9.24122 24.0844C9.44186 24.599 9.18739 25.1787 8.67284 25.3794C8.15829 25.58 7.57851 25.3255 7.37787 24.811C6.82424 23.3912 5.96334 20.6548 6.06989 17.112L6.06999 17.1088L6.06999 17.1088C6.17653 13.9038 7.0287 11.4496 7.62006 10.0877C7.84003 9.5811 8.42902 9.34874 8.93561 9.56871Z" fill="#302E4A"/>
<path d="M23.486 12.4937C17.7326 13.7001 11.9877 14.9065 6.23426 16.1044L6.62233 17.9519L23.8741 14.3412C23.7476 13.7254 23.621 13.1096 23.486 12.4937Z" fill="#302E4A"/>
<path d="M23.9133 20.6122L6.63091 16.9926L6.24353 18.8422L23.5259 22.4619L23.9133 20.6122Z" fill="#302E4A"/>
<path d="M15.6236 12.4937H14.6872V22.7014H15.6236V12.4937Z" fill="#302E4A"/>
<path d="M16.7878 17.0577H13.3965V17.876H16.7878V17.0577Z" fill="#302E4A"/>
<path d="M25.7216 13.2783C25.7216 14.0713 25.0805 14.7124 24.2875 14.7124C23.4945 14.7124 22.8533 14.0713 22.8533 13.2783C22.8533 12.4853 23.4945 11.8442 24.2875 11.8442C25.0805 11.8442 25.7216 12.4853 25.7216 13.2783Z" fill="#302E4A"/>
<path d="M27.721 13.9954C26.9786 14.0122 26.2446 14.0291 25.5023 14.0376C25.5444 13.6411 25.5866 13.2361 25.6372 12.8396C26.329 13.2277 27.0292 13.6157 27.721 13.9954Z" fill="#302E4A"/>
<path d="M15.0921 13.118C15.4369 13.118 15.7164 12.8385 15.7164 12.4937C15.7164 12.149 15.4369 11.8695 15.0921 11.8695C14.7474 11.8695 14.4679 12.149 14.4679 12.4937C14.4679 12.8385 14.7474 13.118 15.0921 13.118Z" fill="#302E4A"/>
<path d="M15.1512 23.3257C15.496 23.3257 15.7755 23.0462 15.7755 22.7014C15.7755 22.3566 15.496 22.0771 15.1512 22.0771C14.8064 22.0771 14.5269 22.3566 14.5269 22.7014C14.5269 23.0462 14.8064 23.3257 15.1512 23.3257Z" fill="#302E4A"/>
<path d="M25.7216 21.6385C25.7216 22.2965 25.1901 22.828 24.5321 22.828C23.8741 22.828 23.3426 22.2965 23.3426 21.6385C23.3426 20.9805 23.8741 20.449 24.5321 20.449C25.1901 20.449 25.7216 20.9805 25.7216 21.6385Z" fill="#302E4A"/>
<path d="M27.721 21.0901C26.9786 21.0732 26.2446 21.0564 25.5023 21.0479C25.5444 21.4444 25.5866 21.8494 25.6372 22.2459C26.329 21.8578 27.0292 21.4697 27.721 21.0901Z" fill="#302E4A"/>
<path fill-rule="evenodd" clip-rule="evenodd" d="M17.1892 1.07306C18.5852 0.5809 21.0924 -0.102529 24.2982 0.0129126L24.2997 0.0129695C27.8436 0.146199 30.5098 1.19413 31.8927 1.84541C32.3923 2.08073 32.6066 2.67653 32.3713 3.17617C32.136 3.67582 31.5401 3.8901 31.0405 3.65478C29.8083 3.07444 27.4131 2.13157 24.2254 2.01159C21.3407 1.90783 19.0903 2.52349 17.8542 2.95926C17.3334 3.1429 16.7623 2.86952 16.5786 2.34866C16.395 1.8278 16.6684 1.2567 17.1892 1.07306Z" fill="#302E4A"/>
</svg>
