<svg width="68" height="68" viewBox="0 0 68 68" fill="none" xmlns="http://www.w3.org/2000/svg">
<path d="M68 34C68 52.7779 52.7779 68 34 68C15.2221 68 0 52.7779 0 34C0 24.8546 3.61084 16.5533 9.48416 10.4413C12.6369 7.16098 16.4433 4.51147 20.6928 2.70346C21.3797 2.41034 22.078 2.14005 22.7867 1.8931C26.2979 0.666138 30.0711 0 34 0C34.1084 0 34.2153 0 34.3232 0.0015564C52.9528 0.174835 68 15.3305 68 34Z" fill="#40649C"/>
<path d="M26.0785 17.9396L16.0075 30.6984L15.0893 31.8631L13.1811 29.4471L4.09799 17.9396H9.48416V10.4414C12.6369 7.16101 16.4433 4.51151 20.6928 2.70349V17.9396H26.0785Z" fill="#77D9A5"/>
<path d="M49.6957 47.4406V48.4714C49.6957 49.3487 48.985 50.0589 48.1077 50.0589H41.7311L47.8898 51.7108C48.738 51.937 49.2402 52.808 49.014 53.6547L48.7463 54.6513C48.5201 55.4975 47.6486 56.0002 46.8019 55.774L40.6417 54.1227L46.1653 57.3117C46.9243 57.7501 47.1853 58.7213 46.7464 59.4808L46.2302 60.3742C45.7918 61.1332 44.8201 61.3931 44.0611 60.9542L38.5395 57.7667L43.0484 62.2756C43.6683 62.8961 43.6683 63.9005 43.0484 64.521L42.3195 65.2509C41.6995 65.8714 40.693 65.8714 40.0731 65.2509L35.5642 60.7405L38.7532 66.2641C39.0069 66.7051 39.0266 67.2172 38.8487 67.6561C37.5512 67.8418 36.2303 67.9544 34.8897 67.9891L31.9212 62.8447L33.3007 67.9917C31.7878 67.9627 30.3004 67.8335 28.8431 67.6115L27.8579 63.9337V67.4465C26.4214 67.184 25.017 66.8327 23.65 66.3959V63.9337L23.0435 66.1962C21.6962 65.7381 20.3878 65.197 19.1219 64.5806L19.5867 62.8447L18.7043 64.3736C17.4467 63.7397 16.2337 63.0289 15.0727 62.2491L15.9437 60.7405L14.695 61.9897C13.5292 61.1861 12.4174 60.3104 11.3658 59.3698L12.9684 57.7667L10.9093 58.9548C9.84888 57.9748 8.85226 56.9273 7.92569 55.8197L10.8647 54.1227L7.31766 55.0731C6.39471 53.9074 5.54803 52.6804 4.78229 51.3985L9.77676 50.0589H4.02432C3.37375 48.8491 2.79477 47.5946 2.29413 46.3013C2.58102 46.0237 2.9696 45.853 3.40021 45.853H9.77676L3.61655 44.2027C2.76987 43.975 2.26611 43.1049 2.49387 42.2572L2.76001 41.2622C2.98776 40.4145 3.85779 39.9117 4.70602 40.1379L10.8647 41.7893L5.34311 38.6002C4.58255 38.1618 4.32263 37.1906 4.76154 36.4311L5.27618 35.5393C5.71457 34.7787 6.68628 34.5188 7.44528 34.9577L12.9684 38.1452L8.45953 33.6364C7.83957 33.0159 7.83957 32.0115 8.45953 31.391L9.18845 30.6626C9.80841 30.0421 10.8133 30.0421 11.4338 30.6626L15.9437 35.1715L12.7547 29.6478C12.3163 28.8888 12.5772 27.9176 13.3362 27.4787L14.2286 26.9641C14.9876 26.5257 15.9593 26.7851 16.3977 27.5457L19.5867 33.0672L17.937 26.9086C17.7092 26.0609 18.2114 25.1903 19.0596 24.9631L20.0547 24.6964C20.9024 24.4692 21.7724 24.9714 22.0002 25.8191L23.65 31.9783V25.6012C23.65 24.7244 24.3607 24.0137 25.2375 24.0137H26.2689C27.1456 24.0137 27.8579 24.7244 27.8579 25.6012V31.9793L29.5077 25.8191C29.7339 24.9714 30.6055 24.4692 31.4522 24.6964L32.4483 24.9631C33.295 25.1903 33.7987 26.0609 33.571 26.9086L31.9212 33.0672L35.1087 27.5457C35.5476 26.7851 36.5188 26.5257 37.2778 26.9641L38.1717 27.4787C38.9307 27.9176 39.1916 28.8888 38.7532 29.6478L35.5642 35.1715L40.0731 30.6626C40.693 30.0421 41.6995 30.0421 42.3195 30.6626L43.0484 31.391C43.6683 32.0115 43.6683 33.0159 43.0484 33.6364L38.5395 38.1452L44.0611 34.9577C44.8201 34.5188 45.7918 34.7787 46.2302 35.5393L46.7464 36.4311C47.1853 37.1906 46.9243 38.1618 46.1653 38.6002L40.6417 41.7893L46.8019 40.1379C47.6486 39.9117 48.5201 40.4145 48.7463 41.2622L49.014 42.2572C49.2402 43.1049 48.738 43.975 47.8898 44.2027L41.7311 45.853H48.1077C48.985 45.853 49.6957 46.5633 49.6957 47.4406Z" fill="#FCBC77"/>
<path d="M48.7116 47.9568C48.7116 56.4583 44.0901 63.8798 37.2223 67.8475C36.4524 67.9222 35.6736 67.9679 34.8897 67.9892C34.594 67.9959 34.2968 68.0001 34 68.0001C33.7671 68.0001 33.5326 67.9975 33.3007 67.9918C31.7878 67.9627 30.3004 67.8335 28.8431 67.6115C28.5127 67.5617 28.1837 67.5062 27.8579 67.4465C26.4214 67.184 25.017 66.8328 23.65 66.3959C23.4476 66.3321 23.2448 66.2652 23.0435 66.1962C21.6962 65.7381 20.3878 65.197 19.1219 64.5807C18.9818 64.5127 18.8428 64.4432 18.7043 64.3737C17.4467 63.7397 16.2337 63.0289 15.0727 62.2492C14.9461 62.1631 14.82 62.0769 14.695 61.9898C13.5292 61.1862 12.4174 60.3104 11.3658 59.3698C11.2118 59.2334 11.0603 59.0964 10.9093 58.9548C9.84888 57.9748 8.85226 56.9273 7.92569 55.8197C7.71869 55.5743 7.51584 55.3258 7.31766 55.0732C6.39471 53.9074 5.54803 52.6805 4.78229 51.3985C4.51978 50.9586 4.26712 50.5114 4.02432 50.059C3.58179 49.2361 3.17245 48.3936 2.80048 47.5309C3.02667 35.048 13.2169 24.9989 25.7542 24.9989C38.4326 24.9989 48.7116 35.2768 48.7116 47.9568Z" fill="#FCBC77"/>
<path d="M47.0198 47.9567C47.0198 57.1841 41.1428 65.0387 32.9287 67.9818C31.5435 67.9403 30.1811 67.8153 28.8431 67.6114C28.5127 67.5616 28.1837 67.5061 27.8579 67.4464C26.4214 67.1839 25.017 66.8327 23.65 66.3959C23.4476 66.3321 23.2448 66.2651 23.0435 66.1961C21.6962 65.738 20.3878 65.1969 19.1219 64.5806C18.9818 64.5126 18.8428 64.4431 18.7043 64.3736C17.4467 63.7396 16.2337 63.0289 15.0727 62.2491C14.9461 62.163 14.82 62.0769 14.695 61.9897C13.5292 61.1861 12.4174 60.3104 11.3658 59.3698C11.2118 59.2333 11.0603 59.0964 10.9093 58.9547C9.84888 57.9747 8.85226 56.9273 7.92569 55.8196C7.71869 55.5743 7.51584 55.3257 7.31766 55.0731C6.39471 53.9074 5.54803 52.6804 4.78229 51.3984C4.77399 51.3844 4.76569 51.3704 4.75739 51.3564C4.57944 50.2493 4.48657 49.1142 4.48657 47.9567C4.48657 36.2106 14.0081 26.6891 25.7542 26.6891C37.4988 26.6891 47.0198 36.2106 47.0198 47.9567Z" fill="#FEE175"/>
<path d="M43.5028 47.9562C43.5028 57.7584 35.5564 65.7048 25.7537 65.7048C15.951 65.7048 8.00455 57.7584 8.00455 47.9562C8.00455 38.1535 15.951 30.207 25.7537 30.207C35.5564 30.207 43.5028 38.1535 43.5028 47.9562Z" fill="#FCBC77"/>
<path d="M41.0515 47.9567C41.0515 48.7162 40.9965 49.4643 40.8881 50.1953C39.9122 56.8515 34.648 62.1152 27.9923 63.0911C27.2613 63.1995 26.5148 63.2545 25.7537 63.2545C23.4217 63.2545 21.2111 62.7326 19.2324 61.7961C17.9053 61.1736 16.682 60.3606 15.5998 59.3977C14.7852 58.6761 14.0501 57.8673 13.4063 56.9879C11.5511 54.4567 10.4554 51.3346 10.4554 47.9567C10.4554 47.9297 10.4554 47.9053 10.4574 47.8788C10.4974 39.4888 17.29 32.6983 25.6774 32.6583C25.7023 32.6562 25.7288 32.6563 25.7537 32.6563C29.1337 32.6563 32.2558 33.752 34.787 35.6093C35.6664 36.251 36.4752 36.9877 37.1948 37.8027C38.1592 38.887 38.9701 40.1078 39.5932 41.4354C40.5291 43.4146 41.0515 45.6247 41.0515 47.9567Z" fill="#FEE175"/>
<path d="M34.787 35.6099L13.4063 56.988C11.5511 54.4568 10.4554 51.3352 10.4554 47.9568C10.4554 47.9303 10.4554 47.9054 10.4574 47.8789L25.6774 32.6584C25.7023 32.6569 25.7288 32.6569 25.7537 32.6569C29.1337 32.6569 32.2558 33.7526 34.787 35.6099Z" fill="#FFEEB8"/>
<path d="M39.5932 41.436L19.2324 61.7963C17.9053 61.1737 16.682 60.3607 15.5998 59.3979L37.1948 37.8029C38.1592 38.8871 38.9701 40.1084 39.5932 41.436Z" fill="#FFEEB8"/>
<path d="M40.8881 50.1954C39.9122 56.8516 34.648 62.1154 27.9923 63.0912L40.8881 50.1954Z" fill="#FFEEB8"/>
<path d="M27.5643 58.0805C24.2082 58.8322 21.0451 57.8174 20.5849 56.0426C20.3406 55.1 20.8132 53.4979 21.8669 53.2245C23.0316 52.9231 24.3981 54.3145 26.5438 54.1433L25.3791 49.651C22.5766 49.3418 19.2729 48.9257 18.353 45.3761C17.4399 41.8545 19.608 39.4878 22.4396 38.3096L22.2383 37.5334C22.1377 37.1449 22.4879 36.6696 23.098 36.5114C23.6251 36.375 24.245 36.5986 24.3457 36.9872L24.5257 37.6803C26.259 37.2901 29.6182 36.8927 30.1142 38.8061C30.3082 39.5547 30.2045 41.2091 28.9848 41.5256C28.0696 41.7627 27.3127 41.012 25.4746 41.3404L26.5236 45.3891C29.2914 45.6775 32.5686 46.2192 33.5388 49.9623C34.4301 53.4009 32.7513 56.0556 29.6431 57.4232L29.8517 58.2278C29.9523 58.6159 29.5186 59.1129 28.992 59.2493C28.3819 59.4076 27.845 59.1622 27.7443 58.7736L27.5643 58.0805ZM24.521 45.1982L23.6655 41.8981C22.4827 42.4714 22.1211 43.2454 22.2933 43.911C22.5019 44.7152 23.3522 45.0275 24.521 45.1982ZM27.4035 49.9255L28.3664 53.6411C29.252 53.1747 29.8641 52.4541 29.6053 51.4559C29.3682 50.5408 28.5241 50.1382 27.4035 49.9255Z" fill="#F2A85F"/>
<path d="M36.2179 34.288H43.6118V0.00158691H59.0009V34.288H66.3943L52.5688 51.8036L51.3066 53.4026L48.6882 50.0849L36.2179 34.288Z" fill="#F974AC"/>
<path d="M39.8676 9.08157L29.5025 22.2139L28.5557 23.4129L26.5921 20.9247L17.2444 9.08157H22.7867V1.8931C26.2979 0.666138 30.0711 0 34 0C34.1084 0 34.2153 0 34.3232 0.0015564V9.08157H39.8676Z" fill="#FEE175"/>
<path d="M43.397 59.1544L47.8281 58.0328C49.6205 57.5794 49.6205 55.0326 47.8281 54.5786L43.397 53.457C42.7625 53.2967 42.2671 52.8012 42.1068 52.1673L40.9851 47.7362C40.5317 45.9432 37.9849 45.9432 37.5309 47.7362L36.4093 52.1673C36.249 52.8012 35.7535 53.2967 35.1196 53.457L30.6885 54.5786C28.8955 55.0326 28.8955 57.5794 30.6885 58.0328L35.1196 59.1544C35.7535 59.3153 36.249 59.8102 36.4093 60.4447L37.5309 64.8758C37.9849 66.6682 40.5317 66.6682 40.9851 64.8758L42.1068 60.4447C42.2676 59.8102 42.7625 59.3148 43.397 59.1544Z" fill="#F1F4FE"/>
</svg>
